# xmcd CD database file
#
# Track frame offsets:
#	150
#	15026
#	30532
#	44197
#	58410
#	72389
#	86281
#	98551
#	113125
#	133009
#	146879
#	161507
#	176361
#	188568
#	202749
#	216998
#	231423
#	246689
#	260883
#
# Disc length: 3674 seconds
#
# Revision: 2
# Processed by: cddbd v1.5.1PL2 Copyright (c) Steve Scherf et al.
# Submitted via: CDex 1.51
#
DISCID=170e5813
DTITLE=Various Artist - Route 66 - CD 3
DYEAR=1900
DGENRE=Jazz
TTITLE0=West end Blues - Louis Armstrong and his Hot Five
TTITLE1=Dr. Jazz - Jelly-Roll Morton's Red Hot Peppers
TTITLE2=High Society - Monk Hazel and his Bienville Roof Orchestra
TTITLE3=Ory's Creole Trombone - Kid Ory and Creole Jazz Band
TTITLE4=Snag it - King Oliver and his Dixie Syncopators
TTITLE5=Apex Blues - Jimmie Noone's Apex Club Orchestra
TTITLE6=Ballin' the Jack - The Chicago Footwarmers
TTITLE7=As you like it - Celestin's Original Tuxedo
TTITLE8=Climax rag - George Lewis and his New Orleans Stompers
TTITLE9=On the sunny side of the street - Billie Holiday
TTITLE10=The frim fram sauce - Ella Fitzgerald and Louis Armstrong
TTITLE11=I can't escape from you - Dexter Gordon
TTITLE12=What is this thing called love - Anita O'Day
TTITLE13=Let me off uptown - Gene Krupa with Roy Eldridge and Anita O'Day
TTITLE14=Cobb's Idea - Arnett Cobb
TTITLE15=Holiday in Harlem - Ella Fitzgerald with Chick Webb
TTITLE16=Apollo jump - Lucky Millinder
TTITLE17=Sepian Bounce - Jay McShann
TTITLE18=Minnie the Moocher - Cab Calloway
EXTD=
EXTT0=
EXTT1=
EXTT2=
EXTT3=
EXTT4=
EXTT5=
EXTT6=
EXTT7=
EXTT8=
EXTT9=
EXTT10=
EXTT11=
EXTT12=
EXTT13=
EXTT14=
EXTT15=
EXTT16=
EXTT17=
EXTT18=
PLAYORDER=
